<mxfile host="app.diagrams.net" modified="2020-10-30T16:02:26.082Z" agent="5.0 (Macintosh)" etag="pGUfGFMkAeTO7-rdrAbv" version="13.8.8" type="github">
  <diagram id="C5RBs43oDa-KdzZeNtuy" name="Page-1">
    <mxGraphModel dx="1646" dy="2119" grid="1" gridSize="10" guides="1" tooltips="1" connect="1" arrows="1" fold="1" page="1" pageScale="1" pageWidth="827" pageHeight="1169" math="0" shadow="0">
      <root>
        <mxCell id="WIyWlLk6GJQsqaUBKTNV-0" />
        <mxCell id="WIyWlLk6GJQsqaUBKTNV-1" parent="WIyWlLk6GJQsqaUBKTNV-0" />
        <mxCell id="Uougo0wdUrf10F7Z-tsD-49" value="" style="edgeStyle=orthogonalEdgeStyle;rounded=0;orthogonalLoop=1;jettySize=auto;html=1;fontSize=12;" edge="1" parent="WIyWlLk6GJQsqaUBKTNV-1" source="WIyWlLk6GJQsqaUBKTNV-3" target="l_E5vQucNCV2tm71upWx-0">
          <mxGeometry relative="1" as="geometry" />
        </mxCell>
        <mxCell id="WIyWlLk6GJQsqaUBKTNV-3" value="Marketing Site" style="rounded=1;whiteSpace=wrap;html=1;fontSize=12;glass=0;strokeWidth=1;shadow=0;" parent="WIyWlLk6GJQsqaUBKTNV-1" vertex="1">
          <mxGeometry x="347.99" y="10" width="120" height="40" as="geometry" />
        </mxCell>
        <mxCell id="Uougo0wdUrf10F7Z-tsD-50" value="" style="edgeStyle=orthogonalEdgeStyle;rounded=0;orthogonalLoop=1;jettySize=auto;html=1;fontSize=12;" edge="1" parent="WIyWlLk6GJQsqaUBKTNV-1" source="l_E5vQucNCV2tm71upWx-0" target="l_E5vQucNCV2tm71upWx-4">
          <mxGeometry relative="1" as="geometry" />
        </mxCell>
        <mxCell id="l_E5vQucNCV2tm71upWx-0" value="&lt;div&gt;Click &quot;Buy&lt;/div&gt;&lt;div&gt;&amp;nbsp;Standard&quot; or &quot;Buy Plus&quot;&lt;/div&gt;" style="rounded=1;whiteSpace=wrap;html=1;fontSize=12;glass=0;strokeWidth=1;shadow=0;" parent="WIyWlLk6GJQsqaUBKTNV-1" vertex="1">
          <mxGeometry x="342.99" y="90" width="130" height="60" as="geometry" />
        </mxCell>
        <mxCell id="l_E5vQucNCV2tm71upWx-8" value="" style="edgeStyle=orthogonalEdgeStyle;rounded=0;orthogonalLoop=1;jettySize=auto;html=1;" parent="WIyWlLk6GJQsqaUBKTNV-1" source="l_E5vQucNCV2tm71upWx-4" target="l_E5vQucNCV2tm71upWx-7" edge="1">
          <mxGeometry relative="1" as="geometry" />
        </mxCell>
        <mxCell id="l_E5vQucNCV2tm71upWx-4" value="&lt;div&gt;Complete register form&lt;/div&gt;" style="rounded=1;whiteSpace=wrap;html=1;fontSize=12;glass=0;strokeWidth=1;shadow=0;" parent="WIyWlLk6GJQsqaUBKTNV-1" vertex="1">
          <mxGeometry x="343" y="215" width="130" height="60" as="geometry" />
        </mxCell>
        <mxCell id="l_E5vQucNCV2tm71upWx-10" value="" style="edgeStyle=orthogonalEdgeStyle;rounded=0;orthogonalLoop=1;jettySize=auto;html=1;" parent="WIyWlLk6GJQsqaUBKTNV-1" source="l_E5vQucNCV2tm71upWx-7" target="l_E5vQucNCV2tm71upWx-9" edge="1">
          <mxGeometry relative="1" as="geometry" />
        </mxCell>
        <mxCell id="l_E5vQucNCV2tm71upWx-7" value="&lt;div&gt;Enter verify code&lt;/div&gt;" style="rounded=1;whiteSpace=wrap;html=1;fontSize=12;glass=0;strokeWidth=1;shadow=0;" parent="WIyWlLk6GJQsqaUBKTNV-1" vertex="1">
          <mxGeometry x="343" y="315" width="130" height="60" as="geometry" />
        </mxCell>
        <mxCell id="Uougo0wdUrf10F7Z-tsD-51" style="edgeStyle=orthogonalEdgeStyle;rounded=0;orthogonalLoop=1;jettySize=auto;html=1;exitX=0.5;exitY=1;exitDx=0;exitDy=0;fontSize=12;" edge="1" parent="WIyWlLk6GJQsqaUBKTNV-1" source="l_E5vQucNCV2tm71upWx-9" target="l_E5vQucNCV2tm71upWx-14">
          <mxGeometry relative="1" as="geometry" />
        </mxCell>
        <mxCell id="l_E5vQucNCV2tm71upWx-9" value="&lt;div&gt;Enter Work Space Name&lt;/div&gt;" style="rounded=1;whiteSpace=wrap;html=1;fontSize=12;glass=0;strokeWidth=1;shadow=0;" parent="WIyWlLk6GJQsqaUBKTNV-1" vertex="1">
          <mxGeometry x="343" y="415" width="130" height="60" as="geometry" />
        </mxCell>
        <mxCell id="Uougo0wdUrf10F7Z-tsD-52" value="" style="edgeStyle=orthogonalEdgeStyle;rounded=0;orthogonalLoop=1;jettySize=auto;html=1;fontSize=12;dashed=1;" edge="1" parent="WIyWlLk6GJQsqaUBKTNV-1" source="l_E5vQucNCV2tm71upWx-14" target="l_E5vQucNCV2tm71upWx-17">
          <mxGeometry relative="1" as="geometry" />
        </mxCell>
        <mxCell id="Uougo0wdUrf10F7Z-tsD-56" value="" style="edgeStyle=orthogonalEdgeStyle;rounded=0;orthogonalLoop=1;jettySize=auto;html=1;fontSize=12;" edge="1" parent="WIyWlLk6GJQsqaUBKTNV-1" source="l_E5vQucNCV2tm71upWx-14" target="Uougo0wdUrf10F7Z-tsD-55">
          <mxGeometry relative="1" as="geometry" />
        </mxCell>
        <mxCell id="Uougo0wdUrf10F7Z-tsD-59" value="" style="edgeStyle=orthogonalEdgeStyle;rounded=0;orthogonalLoop=1;jettySize=auto;html=1;fontSize=12;dashed=1;" edge="1" parent="WIyWlLk6GJQsqaUBKTNV-1" source="l_E5vQucNCV2tm71upWx-14" target="Uougo0wdUrf10F7Z-tsD-58">
          <mxGeometry relative="1" as="geometry" />
        </mxCell>
        <mxCell id="l_E5vQucNCV2tm71upWx-14" value="Show payment form" style="whiteSpace=wrap;html=1;rounded=1;shadow=0;fontSize=12;strokeWidth=1;glass=0;fillColor=#e1d5e7;strokeColor=#9673a6;" parent="WIyWlLk6GJQsqaUBKTNV-1" vertex="1">
          <mxGeometry x="347.995" y="570" width="120" height="60" as="geometry" />
        </mxCell>
        <mxCell id="Uougo0wdUrf10F7Z-tsD-1" value="" style="edgeStyle=orthogonalEdgeStyle;rounded=0;orthogonalLoop=1;jettySize=auto;html=1;dashed=1;" edge="1" parent="WIyWlLk6GJQsqaUBKTNV-1" source="l_E5vQucNCV2tm71upWx-17" target="l_E5vQucNCV2tm71upWx-33">
          <mxGeometry relative="1" as="geometry" />
        </mxCell>
        <mxCell id="l_E5vQucNCV2tm71upWx-17" value="&lt;div&gt;Change Plan or Billing Period&lt;/div&gt;" style="whiteSpace=wrap;html=1;rounded=1;shadow=0;fontSize=12;strokeWidth=1;glass=0;" parent="WIyWlLk6GJQsqaUBKTNV-1" vertex="1">
          <mxGeometry x="529.995" y="570" width="120" height="60" as="geometry" />
        </mxCell>
        <mxCell id="l_E5vQucNCV2tm71upWx-38" style="edgeStyle=orthogonalEdgeStyle;rounded=0;orthogonalLoop=1;jettySize=auto;html=1;exitX=0.5;exitY=1;exitDx=0;exitDy=0;entryX=0.5;entryY=0;entryDx=0;entryDy=0;fontSize=12;" parent="WIyWlLk6GJQsqaUBKTNV-1" source="l_E5vQucNCV2tm71upWx-22" target="l_E5vQucNCV2tm71upWx-24" edge="1">
          <mxGeometry relative="1" as="geometry" />
        </mxCell>
        <mxCell id="l_E5vQucNCV2tm71upWx-22" value="Show Invite Members" style="whiteSpace=wrap;html=1;rounded=1;shadow=0;fontSize=12;strokeWidth=1;glass=0;" parent="WIyWlLk6GJQsqaUBKTNV-1" vertex="1">
          <mxGeometry x="337" y="910" width="141.99" height="60" as="geometry" />
        </mxCell>
        <mxCell id="l_E5vQucNCV2tm71upWx-24" value="Show Tour" style="whiteSpace=wrap;html=1;rounded=1;shadow=0;fontSize=12;strokeWidth=1;glass=0;" parent="WIyWlLk6GJQsqaUBKTNV-1" vertex="1">
          <mxGeometry x="348.005" y="1040" width="120" height="60" as="geometry" />
        </mxCell>
        <mxCell id="l_E5vQucNCV2tm71upWx-46" style="edgeStyle=orthogonalEdgeStyle;rounded=0;orthogonalLoop=1;jettySize=auto;html=1;exitX=0.5;exitY=1;exitDx=0;exitDy=0;entryX=0.5;entryY=0;entryDx=0;entryDy=0;fontSize=12;" parent="WIyWlLk6GJQsqaUBKTNV-1" source="l_E5vQucNCV2tm71upWx-29" target="l_E5vQucNCV2tm71upWx-22" edge="1">
          <mxGeometry relative="1" as="geometry" />
        </mxCell>
        <mxCell id="l_E5vQucNCV2tm71upWx-29" value="Show payment confirmation" style="whiteSpace=wrap;html=1;rounded=1;shadow=0;fontSize=12;strokeWidth=1;glass=0;" parent="WIyWlLk6GJQsqaUBKTNV-1" vertex="1">
          <mxGeometry x="347.995" y="780" width="120" height="60" as="geometry" />
        </mxCell>
        <mxCell id="Uougo0wdUrf10F7Z-tsD-54" style="edgeStyle=orthogonalEdgeStyle;rounded=0;orthogonalLoop=1;jettySize=auto;html=1;exitX=0.5;exitY=0;exitDx=0;exitDy=0;fontSize=12;dashed=1;" edge="1" parent="WIyWlLk6GJQsqaUBKTNV-1" source="l_E5vQucNCV2tm71upWx-33">
          <mxGeometry relative="1" as="geometry">
            <mxPoint x="430" y="570" as="targetPoint" />
            <Array as="points">
              <mxPoint x="767" y="530" />
              <mxPoint x="430" y="530" />
              <mxPoint x="430" y="570" />
            </Array>
          </mxGeometry>
        </mxCell>
        <mxCell id="l_E5vQucNCV2tm71upWx-33" value="Select Plan" style="whiteSpace=wrap;html=1;rounded=1;shadow=0;fontSize=12;strokeWidth=1;glass=0;" parent="WIyWlLk6GJQsqaUBKTNV-1" vertex="1">
          <mxGeometry x="706.995" y="570" width="120" height="60" as="geometry" />
        </mxCell>
        <mxCell id="Uougo0wdUrf10F7Z-tsD-57" value="" style="edgeStyle=orthogonalEdgeStyle;rounded=0;orthogonalLoop=1;jettySize=auto;html=1;fontSize=12;" edge="1" parent="WIyWlLk6GJQsqaUBKTNV-1" source="Uougo0wdUrf10F7Z-tsD-55" target="l_E5vQucNCV2tm71upWx-29">
          <mxGeometry relative="1" as="geometry" />
        </mxCell>
        <mxCell id="Uougo0wdUrf10F7Z-tsD-55" value="&lt;div&gt;Complete form&lt;/div&gt;" style="whiteSpace=wrap;html=1;rounded=1;shadow=0;fontSize=12;strokeWidth=1;glass=0;" vertex="1" parent="WIyWlLk6GJQsqaUBKTNV-1">
          <mxGeometry x="347.995" y="670" width="120" height="60" as="geometry" />
        </mxCell>
        <mxCell id="Uougo0wdUrf10F7Z-tsD-60" style="edgeStyle=orthogonalEdgeStyle;rounded=0;orthogonalLoop=1;jettySize=auto;html=1;exitX=0.5;exitY=1;exitDx=0;exitDy=0;fontSize=12;dashed=1;" edge="1" parent="WIyWlLk6GJQsqaUBKTNV-1" source="Uougo0wdUrf10F7Z-tsD-58">
          <mxGeometry relative="1" as="geometry">
            <mxPoint x="390" y="910" as="targetPoint" />
            <Array as="points">
              <mxPoint x="230" y="870" />
              <mxPoint x="390" y="870" />
              <mxPoint x="390" y="910" />
            </Array>
          </mxGeometry>
        </mxCell>
        <mxCell id="Uougo0wdUrf10F7Z-tsD-58" value="&lt;div&gt;Skip&lt;/div&gt;" style="whiteSpace=wrap;html=1;rounded=1;shadow=0;fontSize=12;strokeWidth=1;glass=0;" vertex="1" parent="WIyWlLk6GJQsqaUBKTNV-1">
          <mxGeometry x="170.005" y="570" width="120" height="60" as="geometry" />
        </mxCell>
        <mxCell id="Uougo0wdUrf10F7Z-tsD-62" value="" style="edgeStyle=orthogonalEdgeStyle;rounded=0;orthogonalLoop=1;jettySize=auto;html=1;fontSize=12;" edge="1" parent="WIyWlLk6GJQsqaUBKTNV-1" source="Uougo0wdUrf10F7Z-tsD-63" target="Uougo0wdUrf10F7Z-tsD-65">
          <mxGeometry relative="1" as="geometry" />
        </mxCell>
        <mxCell id="Uougo0wdUrf10F7Z-tsD-63" value="Marketing Site" style="rounded=1;whiteSpace=wrap;html=1;fontSize=12;glass=0;strokeWidth=1;shadow=0;" vertex="1" parent="WIyWlLk6GJQsqaUBKTNV-1">
          <mxGeometry x="1067.98" y="-20" width="120" height="40" as="geometry" />
        </mxCell>
        <mxCell id="Uougo0wdUrf10F7Z-tsD-64" value="" style="edgeStyle=orthogonalEdgeStyle;rounded=0;orthogonalLoop=1;jettySize=auto;html=1;fontSize=12;" edge="1" parent="WIyWlLk6GJQsqaUBKTNV-1" source="Uougo0wdUrf10F7Z-tsD-65" target="Uougo0wdUrf10F7Z-tsD-67">
          <mxGeometry relative="1" as="geometry" />
        </mxCell>
        <mxCell id="Uougo0wdUrf10F7Z-tsD-65" value="&lt;div&gt;Click &quot;Sign up&quot;&lt;br&gt;&lt;/div&gt;" style="rounded=1;whiteSpace=wrap;html=1;fontSize=12;glass=0;strokeWidth=1;shadow=0;" vertex="1" parent="WIyWlLk6GJQsqaUBKTNV-1">
          <mxGeometry x="1062.98" y="60" width="130" height="60" as="geometry" />
        </mxCell>
        <mxCell id="Uougo0wdUrf10F7Z-tsD-66" value="" style="edgeStyle=orthogonalEdgeStyle;rounded=0;orthogonalLoop=1;jettySize=auto;html=1;" edge="1" parent="WIyWlLk6GJQsqaUBKTNV-1" source="Uougo0wdUrf10F7Z-tsD-67" target="Uougo0wdUrf10F7Z-tsD-69">
          <mxGeometry relative="1" as="geometry" />
        </mxCell>
        <mxCell id="Uougo0wdUrf10F7Z-tsD-67" value="&lt;div&gt;Complete register form&lt;/div&gt;" style="rounded=1;whiteSpace=wrap;html=1;fontSize=12;glass=0;strokeWidth=1;shadow=0;" vertex="1" parent="WIyWlLk6GJQsqaUBKTNV-1">
          <mxGeometry x="1062.99" y="185" width="130" height="60" as="geometry" />
        </mxCell>
        <mxCell id="Uougo0wdUrf10F7Z-tsD-68" value="" style="edgeStyle=orthogonalEdgeStyle;rounded=0;orthogonalLoop=1;jettySize=auto;html=1;" edge="1" parent="WIyWlLk6GJQsqaUBKTNV-1" source="Uougo0wdUrf10F7Z-tsD-69" target="Uougo0wdUrf10F7Z-tsD-71">
          <mxGeometry relative="1" as="geometry" />
        </mxCell>
        <mxCell id="Uougo0wdUrf10F7Z-tsD-69" value="&lt;div&gt;Enter verify code&lt;/div&gt;" style="rounded=1;whiteSpace=wrap;html=1;fontSize=12;glass=0;strokeWidth=1;shadow=0;" vertex="1" parent="WIyWlLk6GJQsqaUBKTNV-1">
          <mxGeometry x="1062.99" y="285" width="130" height="60" as="geometry" />
        </mxCell>
        <mxCell id="Uougo0wdUrf10F7Z-tsD-70" style="edgeStyle=orthogonalEdgeStyle;rounded=0;orthogonalLoop=1;jettySize=auto;html=1;exitX=0.5;exitY=1;exitDx=0;exitDy=0;fontSize=12;" edge="1" parent="WIyWlLk6GJQsqaUBKTNV-1" source="Uougo0wdUrf10F7Z-tsD-71" target="Uougo0wdUrf10F7Z-tsD-75">
          <mxGeometry relative="1" as="geometry" />
        </mxCell>
        <mxCell id="Uougo0wdUrf10F7Z-tsD-71" value="&lt;div&gt;Enter Work Space Name&lt;/div&gt;" style="rounded=1;whiteSpace=wrap;html=1;fontSize=12;glass=0;strokeWidth=1;shadow=0;" vertex="1" parent="WIyWlLk6GJQsqaUBKTNV-1">
          <mxGeometry x="1062.99" y="385" width="130" height="60" as="geometry" />
        </mxCell>
        <mxCell id="Uougo0wdUrf10F7Z-tsD-74" value="" style="edgeStyle=orthogonalEdgeStyle;rounded=0;orthogonalLoop=1;jettySize=auto;html=1;fontSize=12;dashed=1;" edge="1" parent="WIyWlLk6GJQsqaUBKTNV-1" source="Uougo0wdUrf10F7Z-tsD-75" target="Uougo0wdUrf10F7Z-tsD-88">
          <mxGeometry relative="1" as="geometry" />
        </mxCell>
        <mxCell id="Uougo0wdUrf10F7Z-tsD-91" value="" style="edgeStyle=orthogonalEdgeStyle;rounded=0;orthogonalLoop=1;jettySize=auto;html=1;dashed=1;endArrow=classic;endFill=0;fontSize=12;" edge="1" parent="WIyWlLk6GJQsqaUBKTNV-1" source="Uougo0wdUrf10F7Z-tsD-75" target="Uougo0wdUrf10F7Z-tsD-90">
          <mxGeometry relative="1" as="geometry" />
        </mxCell>
        <mxCell id="Uougo0wdUrf10F7Z-tsD-75" value="Show Select Plan" style="whiteSpace=wrap;html=1;rounded=1;shadow=0;fontSize=12;strokeWidth=1;glass=0;" vertex="1" parent="WIyWlLk6GJQsqaUBKTNV-1">
          <mxGeometry x="1067.9850000000001" y="540" width="120" height="60" as="geometry" />
        </mxCell>
        <mxCell id="Uougo0wdUrf10F7Z-tsD-78" style="edgeStyle=orthogonalEdgeStyle;rounded=0;orthogonalLoop=1;jettySize=auto;html=1;exitX=0.5;exitY=1;exitDx=0;exitDy=0;entryX=0.5;entryY=0;entryDx=0;entryDy=0;fontSize=12;" edge="1" parent="WIyWlLk6GJQsqaUBKTNV-1" source="Uougo0wdUrf10F7Z-tsD-79" target="Uougo0wdUrf10F7Z-tsD-80">
          <mxGeometry relative="1" as="geometry" />
        </mxCell>
        <mxCell id="Uougo0wdUrf10F7Z-tsD-79" value="Show Invite Members" style="whiteSpace=wrap;html=1;rounded=1;shadow=0;fontSize=12;strokeWidth=1;glass=0;" vertex="1" parent="WIyWlLk6GJQsqaUBKTNV-1">
          <mxGeometry x="1056.99" y="1000" width="141.99" height="60" as="geometry" />
        </mxCell>
        <mxCell id="Uougo0wdUrf10F7Z-tsD-80" value="Show Tour" style="whiteSpace=wrap;html=1;rounded=1;shadow=0;fontSize=12;strokeWidth=1;glass=0;" vertex="1" parent="WIyWlLk6GJQsqaUBKTNV-1">
          <mxGeometry x="1067.995" y="1130" width="120" height="60" as="geometry" />
        </mxCell>
        <mxCell id="Uougo0wdUrf10F7Z-tsD-81" style="edgeStyle=orthogonalEdgeStyle;rounded=0;orthogonalLoop=1;jettySize=auto;html=1;exitX=0.5;exitY=1;exitDx=0;exitDy=0;entryX=0.5;entryY=0;entryDx=0;entryDy=0;fontSize=12;" edge="1" parent="WIyWlLk6GJQsqaUBKTNV-1" source="Uougo0wdUrf10F7Z-tsD-82" target="Uougo0wdUrf10F7Z-tsD-79">
          <mxGeometry relative="1" as="geometry" />
        </mxCell>
        <mxCell id="Uougo0wdUrf10F7Z-tsD-82" value="Show free confirmation" style="whiteSpace=wrap;html=1;rounded=1;shadow=0;fontSize=12;strokeWidth=1;glass=0;" vertex="1" parent="WIyWlLk6GJQsqaUBKTNV-1">
          <mxGeometry x="1067.9850000000001" y="870" width="120" height="60" as="geometry" />
        </mxCell>
        <mxCell id="Uougo0wdUrf10F7Z-tsD-85" value="" style="edgeStyle=orthogonalEdgeStyle;rounded=0;orthogonalLoop=1;jettySize=auto;html=1;fontSize=12;" edge="1" parent="WIyWlLk6GJQsqaUBKTNV-1" source="Uougo0wdUrf10F7Z-tsD-86" target="Uougo0wdUrf10F7Z-tsD-82">
          <mxGeometry relative="1" as="geometry" />
        </mxCell>
        <mxCell id="Uougo0wdUrf10F7Z-tsD-86" value="&lt;div&gt;Complete form&lt;/div&gt;" style="whiteSpace=wrap;html=1;rounded=1;shadow=0;fontSize=12;strokeWidth=1;glass=0;" vertex="1" parent="WIyWlLk6GJQsqaUBKTNV-1">
          <mxGeometry x="1249.9950000000001" y="810" width="120" height="60" as="geometry" />
        </mxCell>
        <mxCell id="Uougo0wdUrf10F7Z-tsD-87" style="edgeStyle=orthogonalEdgeStyle;rounded=0;orthogonalLoop=1;jettySize=auto;html=1;exitX=0.5;exitY=1;exitDx=0;exitDy=0;fontSize=12;dashed=1;" edge="1" parent="WIyWlLk6GJQsqaUBKTNV-1" source="Uougo0wdUrf10F7Z-tsD-88">
          <mxGeometry relative="1" as="geometry">
            <mxPoint x="1109.99" y="880" as="targetPoint" />
            <Array as="points">
              <mxPoint x="949.99" y="840" />
              <mxPoint x="1109.99" y="840" />
              <mxPoint x="1109.99" y="880" />
            </Array>
          </mxGeometry>
        </mxCell>
        <mxCell id="Uougo0wdUrf10F7Z-tsD-88" value="&lt;div&gt;Skip&lt;/div&gt;" style="whiteSpace=wrap;html=1;rounded=1;shadow=0;fontSize=12;strokeWidth=1;glass=0;" vertex="1" parent="WIyWlLk6GJQsqaUBKTNV-1">
          <mxGeometry x="889.995" y="540" width="120" height="60" as="geometry" />
        </mxCell>
        <mxCell id="Uougo0wdUrf10F7Z-tsD-96" style="edgeStyle=orthogonalEdgeStyle;rounded=0;orthogonalLoop=1;jettySize=auto;html=1;exitX=0.5;exitY=1;exitDx=0;exitDy=0;entryX=0.5;entryY=0;entryDx=0;entryDy=0;endArrow=classic;endFill=0;fontSize=12;" edge="1" parent="WIyWlLk6GJQsqaUBKTNV-1" source="Uougo0wdUrf10F7Z-tsD-90" target="Uougo0wdUrf10F7Z-tsD-82">
          <mxGeometry relative="1" as="geometry" />
        </mxCell>
        <mxCell id="Uougo0wdUrf10F7Z-tsD-100" value="" style="edgeStyle=orthogonalEdgeStyle;rounded=0;orthogonalLoop=1;jettySize=auto;html=1;endArrow=classic;endFill=0;fontSize=12;" edge="1" parent="WIyWlLk6GJQsqaUBKTNV-1" source="Uougo0wdUrf10F7Z-tsD-90" target="Uougo0wdUrf10F7Z-tsD-99">
          <mxGeometry relative="1" as="geometry" />
        </mxCell>
        <mxCell id="Uougo0wdUrf10F7Z-tsD-90" value="Free?" style="rhombus;whiteSpace=wrap;html=1;rounded=1;shadow=0;strokeWidth=1;glass=0;" vertex="1" parent="WIyWlLk6GJQsqaUBKTNV-1">
          <mxGeometry x="1087.9850000000001" y="620" width="80" height="80" as="geometry" />
        </mxCell>
        <mxCell id="Uougo0wdUrf10F7Z-tsD-99" value="Go to purple" style="whiteSpace=wrap;html=1;rounded=1;shadow=0;strokeWidth=1;glass=0;fillColor=#e1d5e7;strokeColor=#9673a6;" vertex="1" parent="WIyWlLk6GJQsqaUBKTNV-1">
          <mxGeometry x="1227.9850000000001" y="630" width="120" height="60" as="geometry" />
        </mxCell>
      </root>
    </mxGraphModel>
  </diagram>
</mxfile>
